<mxfile host="app.diagrams.net" agent="Mozilla/5.0 (Windows NT 10.0; Win64; x64) AppleWebKit/537.36 (KHTML, like Gecko) Chrome/132.0.0.0 Safari/537.36" version="26.0.11">
  <diagram name="Page-1" id="b520641d-4fe3-3701-9064-5fc419738815">
    <mxGraphModel dx="868" dy="870" grid="1" gridSize="10" guides="1" tooltips="1" connect="1" arrows="1" fold="1" page="1" pageScale="1" pageWidth="1100" pageHeight="850" background="none" math="0" shadow="0">
      <root>
        <mxCell id="0" />
        <mxCell id="1" parent="0" />
        <mxCell id="9bsTMoyE5d5Ok4tgcOj4-3" style="edgeStyle=orthogonalEdgeStyle;rounded=0;orthogonalLoop=1;jettySize=auto;html=1;entryX=0;entryY=0.5;entryDx=0;entryDy=0;" edge="1" parent="1" source="9bsTMoyE5d5Ok4tgcOj4-1" target="9bsTMoyE5d5Ok4tgcOj4-2">
          <mxGeometry relative="1" as="geometry" />
        </mxCell>
        <mxCell id="9bsTMoyE5d5Ok4tgcOj4-41" style="edgeStyle=orthogonalEdgeStyle;rounded=0;orthogonalLoop=1;jettySize=auto;html=1;entryX=0;entryY=0.5;entryDx=0;entryDy=0;" edge="1" parent="1" source="9bsTMoyE5d5Ok4tgcOj4-1" target="9bsTMoyE5d5Ok4tgcOj4-8">
          <mxGeometry relative="1" as="geometry">
            <Array as="points">
              <mxPoint x="320" y="330" />
            </Array>
          </mxGeometry>
        </mxCell>
        <mxCell id="9bsTMoyE5d5Ok4tgcOj4-1" value="WEBSITE" style="shape=cube;whiteSpace=wrap;html=1;boundedLbl=1;backgroundOutline=1;darkOpacity=0.05;darkOpacity2=0.1;" vertex="1" parent="1">
          <mxGeometry x="220" y="190" width="120" height="80" as="geometry" />
        </mxCell>
        <mxCell id="9bsTMoyE5d5Ok4tgcOj4-5" style="edgeStyle=orthogonalEdgeStyle;rounded=0;orthogonalLoop=1;jettySize=auto;html=1;" edge="1" parent="1" source="9bsTMoyE5d5Ok4tgcOj4-2" target="9bsTMoyE5d5Ok4tgcOj4-4">
          <mxGeometry relative="1" as="geometry" />
        </mxCell>
        <mxCell id="9bsTMoyE5d5Ok4tgcOj4-7" style="edgeStyle=orthogonalEdgeStyle;rounded=0;orthogonalLoop=1;jettySize=auto;html=1;" edge="1" parent="1" source="9bsTMoyE5d5Ok4tgcOj4-2" target="9bsTMoyE5d5Ok4tgcOj4-1">
          <mxGeometry relative="1" as="geometry" />
        </mxCell>
        <mxCell id="9bsTMoyE5d5Ok4tgcOj4-2" value="Auth&lt;div&gt;Service&lt;/div&gt;" style="ellipse;whiteSpace=wrap;html=1;aspect=fixed;" vertex="1" parent="1">
          <mxGeometry x="470" y="190" width="80" height="80" as="geometry" />
        </mxCell>
        <mxCell id="9bsTMoyE5d5Ok4tgcOj4-6" style="edgeStyle=orthogonalEdgeStyle;rounded=0;orthogonalLoop=1;jettySize=auto;html=1;" edge="1" parent="1" source="9bsTMoyE5d5Ok4tgcOj4-4" target="9bsTMoyE5d5Ok4tgcOj4-2">
          <mxGeometry relative="1" as="geometry" />
        </mxCell>
        <mxCell id="9bsTMoyE5d5Ok4tgcOj4-4" value="Users&lt;div&gt;DB&lt;/div&gt;" style="shape=cylinder3;whiteSpace=wrap;html=1;boundedLbl=1;backgroundOutline=1;size=15;" vertex="1" parent="1">
          <mxGeometry x="670" y="190" width="60" height="80" as="geometry" />
        </mxCell>
        <mxCell id="9bsTMoyE5d5Ok4tgcOj4-11" style="edgeStyle=orthogonalEdgeStyle;rounded=0;orthogonalLoop=1;jettySize=auto;html=1;" edge="1" parent="1" source="9bsTMoyE5d5Ok4tgcOj4-8" target="9bsTMoyE5d5Ok4tgcOj4-10">
          <mxGeometry relative="1" as="geometry" />
        </mxCell>
        <mxCell id="9bsTMoyE5d5Ok4tgcOj4-43" style="edgeStyle=orthogonalEdgeStyle;rounded=0;orthogonalLoop=1;jettySize=auto;html=1;exitX=0.5;exitY=1;exitDx=0;exitDy=0;entryX=0.5;entryY=0;entryDx=0;entryDy=0;" edge="1" parent="1" source="9bsTMoyE5d5Ok4tgcOj4-8" target="9bsTMoyE5d5Ok4tgcOj4-38">
          <mxGeometry relative="1" as="geometry" />
        </mxCell>
        <mxCell id="9bsTMoyE5d5Ok4tgcOj4-8" value="Book Inventory Service" style="ellipse;whiteSpace=wrap;html=1;aspect=fixed;" vertex="1" parent="1">
          <mxGeometry x="470" y="290" width="80" height="80" as="geometry" />
        </mxCell>
        <mxCell id="9bsTMoyE5d5Ok4tgcOj4-12" style="edgeStyle=orthogonalEdgeStyle;rounded=0;orthogonalLoop=1;jettySize=auto;html=1;entryX=1;entryY=0.5;entryDx=0;entryDy=0;" edge="1" parent="1" source="9bsTMoyE5d5Ok4tgcOj4-10" target="9bsTMoyE5d5Ok4tgcOj4-8">
          <mxGeometry relative="1" as="geometry" />
        </mxCell>
        <mxCell id="9bsTMoyE5d5Ok4tgcOj4-10" value="Books Inventory DB" style="shape=cylinder3;whiteSpace=wrap;html=1;boundedLbl=1;backgroundOutline=1;size=15;" vertex="1" parent="1">
          <mxGeometry x="670" y="290" width="60" height="80" as="geometry" />
        </mxCell>
        <mxCell id="9bsTMoyE5d5Ok4tgcOj4-31" style="edgeStyle=orthogonalEdgeStyle;rounded=0;orthogonalLoop=1;jettySize=auto;html=1;" edge="1" parent="1" source="9bsTMoyE5d5Ok4tgcOj4-13" target="9bsTMoyE5d5Ok4tgcOj4-30">
          <mxGeometry relative="1" as="geometry" />
        </mxCell>
        <mxCell id="9bsTMoyE5d5Ok4tgcOj4-13" value="Fines&lt;div&gt;Service&lt;/div&gt;" style="ellipse;whiteSpace=wrap;html=1;aspect=fixed;" vertex="1" parent="1">
          <mxGeometry x="470" y="520" width="80" height="80" as="geometry" />
        </mxCell>
        <mxCell id="9bsTMoyE5d5Ok4tgcOj4-17" value="Notification Service" style="ellipse;whiteSpace=wrap;html=1;aspect=fixed;" vertex="1" parent="1">
          <mxGeometry x="470" y="650" width="80" height="80" as="geometry" />
        </mxCell>
        <mxCell id="9bsTMoyE5d5Ok4tgcOj4-40" style="edgeStyle=orthogonalEdgeStyle;rounded=0;orthogonalLoop=1;jettySize=auto;html=1;entryX=1;entryY=0.5;entryDx=0;entryDy=0;" edge="1" parent="1" source="9bsTMoyE5d5Ok4tgcOj4-18" target="9bsTMoyE5d5Ok4tgcOj4-38">
          <mxGeometry relative="1" as="geometry" />
        </mxCell>
        <mxCell id="9bsTMoyE5d5Ok4tgcOj4-18" value="Borrowed Books DB" style="shape=cylinder3;whiteSpace=wrap;html=1;boundedLbl=1;backgroundOutline=1;size=15;" vertex="1" parent="1">
          <mxGeometry x="670" y="400" width="60" height="80" as="geometry" />
        </mxCell>
        <mxCell id="9bsTMoyE5d5Ok4tgcOj4-30" value="Fine Records DB" style="shape=cylinder3;whiteSpace=wrap;html=1;boundedLbl=1;backgroundOutline=1;size=15;" vertex="1" parent="1">
          <mxGeometry x="670" y="520" width="60" height="80" as="geometry" />
        </mxCell>
        <mxCell id="9bsTMoyE5d5Ok4tgcOj4-32" value="USER" style="shape=cube;whiteSpace=wrap;html=1;boundedLbl=1;backgroundOutline=1;darkOpacity=0.05;darkOpacity2=0.1;" vertex="1" parent="1">
          <mxGeometry x="100" y="60" width="120" height="80" as="geometry" />
        </mxCell>
        <mxCell id="9bsTMoyE5d5Ok4tgcOj4-33" value="LIBRARY" style="shape=cube;whiteSpace=wrap;html=1;boundedLbl=1;backgroundOutline=1;darkOpacity=0.05;darkOpacity2=0.1;" vertex="1" parent="1">
          <mxGeometry x="330" y="60" width="120" height="80" as="geometry" />
        </mxCell>
        <mxCell id="9bsTMoyE5d5Ok4tgcOj4-34" style="edgeStyle=orthogonalEdgeStyle;rounded=0;orthogonalLoop=1;jettySize=auto;html=1;entryX=0;entryY=0;entryDx=0;entryDy=30;entryPerimeter=0;" edge="1" parent="1" source="9bsTMoyE5d5Ok4tgcOj4-32" target="9bsTMoyE5d5Ok4tgcOj4-33">
          <mxGeometry relative="1" as="geometry">
            <Array as="points">
              <mxPoint x="260" y="90" />
              <mxPoint x="260" y="90" />
            </Array>
          </mxGeometry>
        </mxCell>
        <mxCell id="9bsTMoyE5d5Ok4tgcOj4-35" style="edgeStyle=orthogonalEdgeStyle;rounded=0;orthogonalLoop=1;jettySize=auto;html=1;entryX=0;entryY=0;entryDx=50;entryDy=0;entryPerimeter=0;" edge="1" parent="1" source="9bsTMoyE5d5Ok4tgcOj4-33" target="9bsTMoyE5d5Ok4tgcOj4-1">
          <mxGeometry relative="1" as="geometry" />
        </mxCell>
        <mxCell id="9bsTMoyE5d5Ok4tgcOj4-36" style="edgeStyle=orthogonalEdgeStyle;rounded=0;orthogonalLoop=1;jettySize=auto;html=1;entryX=0;entryY=0;entryDx=0;entryDy=30;entryPerimeter=0;" edge="1" parent="1" source="9bsTMoyE5d5Ok4tgcOj4-32" target="9bsTMoyE5d5Ok4tgcOj4-1">
          <mxGeometry relative="1" as="geometry" />
        </mxCell>
        <mxCell id="9bsTMoyE5d5Ok4tgcOj4-37" style="edgeStyle=orthogonalEdgeStyle;rounded=0;orthogonalLoop=1;jettySize=auto;html=1;entryX=0.337;entryY=1.009;entryDx=0;entryDy=0;entryPerimeter=0;exitX=0;exitY=1;exitDx=0;exitDy=0;" edge="1" parent="1" source="9bsTMoyE5d5Ok4tgcOj4-17" target="9bsTMoyE5d5Ok4tgcOj4-1">
          <mxGeometry relative="1" as="geometry">
            <mxPoint x="470" y="721.2000000000003" as="sourcePoint" />
            <mxPoint x="262.72" y="300.00000000000006" as="targetPoint" />
          </mxGeometry>
        </mxCell>
        <mxCell id="9bsTMoyE5d5Ok4tgcOj4-39" style="edgeStyle=orthogonalEdgeStyle;rounded=0;orthogonalLoop=1;jettySize=auto;html=1;" edge="1" parent="1" source="9bsTMoyE5d5Ok4tgcOj4-38" target="9bsTMoyE5d5Ok4tgcOj4-18">
          <mxGeometry relative="1" as="geometry" />
        </mxCell>
        <mxCell id="9bsTMoyE5d5Ok4tgcOj4-44" style="edgeStyle=orthogonalEdgeStyle;rounded=0;orthogonalLoop=1;jettySize=auto;html=1;entryX=0.5;entryY=0;entryDx=0;entryDy=0;" edge="1" parent="1" source="9bsTMoyE5d5Ok4tgcOj4-38" target="9bsTMoyE5d5Ok4tgcOj4-13">
          <mxGeometry relative="1" as="geometry" />
        </mxCell>
        <mxCell id="9bsTMoyE5d5Ok4tgcOj4-45" style="edgeStyle=orthogonalEdgeStyle;rounded=0;orthogonalLoop=1;jettySize=auto;html=1;exitX=0.5;exitY=0;exitDx=0;exitDy=0;entryX=0.5;entryY=1;entryDx=0;entryDy=0;" edge="1" parent="1" source="9bsTMoyE5d5Ok4tgcOj4-38" target="9bsTMoyE5d5Ok4tgcOj4-8">
          <mxGeometry relative="1" as="geometry" />
        </mxCell>
        <mxCell id="9bsTMoyE5d5Ok4tgcOj4-46" style="edgeStyle=orthogonalEdgeStyle;rounded=0;orthogonalLoop=1;jettySize=auto;html=1;" edge="1" parent="1" source="9bsTMoyE5d5Ok4tgcOj4-38" target="9bsTMoyE5d5Ok4tgcOj4-17">
          <mxGeometry relative="1" as="geometry">
            <Array as="points">
              <mxPoint x="430" y="440" />
              <mxPoint x="430" y="689.9999999999998" />
            </Array>
          </mxGeometry>
        </mxCell>
        <mxCell id="9bsTMoyE5d5Ok4tgcOj4-38" value="Book Borrowing Service" style="ellipse;whiteSpace=wrap;html=1;aspect=fixed;" vertex="1" parent="1">
          <mxGeometry x="470" y="400" width="80" height="80" as="geometry" />
        </mxCell>
        <mxCell id="9bsTMoyE5d5Ok4tgcOj4-42" style="edgeStyle=orthogonalEdgeStyle;rounded=0;orthogonalLoop=1;jettySize=auto;html=1;entryX=0.842;entryY=0.985;entryDx=0;entryDy=0;entryPerimeter=0;" edge="1" parent="1" source="9bsTMoyE5d5Ok4tgcOj4-8" target="9bsTMoyE5d5Ok4tgcOj4-1">
          <mxGeometry relative="1" as="geometry" />
        </mxCell>
        <mxCell id="9bsTMoyE5d5Ok4tgcOj4-48" style="edgeStyle=orthogonalEdgeStyle;rounded=0;orthogonalLoop=1;jettySize=auto;html=1;exitX=0;exitY=0;exitDx=70;exitDy=80;exitPerimeter=0;entryX=0;entryY=0;entryDx=0;entryDy=0;" edge="1" parent="1" source="9bsTMoyE5d5Ok4tgcOj4-1" target="9bsTMoyE5d5Ok4tgcOj4-38">
          <mxGeometry relative="1" as="geometry">
            <Array as="points">
              <mxPoint x="290" y="380" />
              <mxPoint x="482" y="380" />
            </Array>
          </mxGeometry>
        </mxCell>
      </root>
    </mxGraphModel>
  </diagram>
</mxfile>
